<svg width="15" height="16" viewBox="0 0 15 16" fill="none" xmlns="http://www.w3.org/2000/svg">
<path fill-rule="evenodd" clip-rule="evenodd" d="M10.2753 1.93652C9.7757 1.93652 9.29655 2.13499 8.94326 2.48828L2.89547 8.53607C2.29522 9.13632 1.95801 9.95043 1.95801 10.7993C1.95801 11.6482 2.29522 12.4623 2.89547 13.0625C3.49572 13.6628 4.30983 14 5.15871 14C6.00759 14 6.8217 13.6628 7.42195 13.0625L13.4697 7.01475C13.7626 6.72186 14.2375 6.72186 14.5304 7.01475C14.8233 7.30764 14.8233 7.78252 14.5304 8.07541L8.4826 14.1232C7.60105 15.0048 6.40541 15.5 5.15871 15.5C3.912 15.5 2.71636 15.0048 1.83481 14.1232C0.953259 13.2416 0.458008 12.046 0.458008 10.7993C0.458008 9.5526 0.953259 8.35696 1.83481 7.47541L7.8826 1.42762C8.51719 0.79303 9.37787 0.436523 10.2753 0.436523C11.1728 0.436523 12.0334 0.79303 12.668 1.42762C13.3026 2.0622 13.6591 2.92288 13.6591 3.82032C13.6591 4.71776 13.3026 5.57845 12.668 6.21303L6.61365 12.2608C6.22603 12.6484 5.7003 12.8662 5.15213 12.8662C4.60395 12.8662 4.07823 12.6484 3.69061 12.2608C3.30299 11.8732 3.08523 11.3475 3.08523 10.7993C3.08523 10.2511 3.30299 9.7254 3.69061 9.33779L9.27805 3.75692C9.57112 3.4642 10.046 3.46448 10.3387 3.75755C10.6314 4.05061 10.6312 4.52548 10.3381 4.8182L4.75127 10.3984C4.64515 10.5047 4.58523 10.6491 4.58523 10.7993C4.58523 10.9497 4.64495 11.0938 4.75127 11.2002C4.85758 11.3065 5.00178 11.3662 5.15213 11.3662C5.30248 11.3662 5.44667 11.3065 5.55299 11.2002L11.6074 5.15237C11.6075 5.15228 11.6073 5.15247 11.6074 5.15237C11.9605 4.79912 12.1591 4.3198 12.1591 3.82032C12.1591 3.32071 11.9606 2.84156 11.6074 2.48828C11.2541 2.13499 10.7749 1.93652 10.2753 1.93652Z" fill="#181D32" fill-opacity="0.7"/>
</svg>
