<svg width="11" height="13" viewBox="0 0 11 13" fill="none" xmlns="http://www.w3.org/2000/svg">
<path d="M10.7175 8.7825L7.2825 12.2175C6.99 12.51 6.51 12.51 6.2175 12.2175C5.925 11.925 5.925 11.445 6.2175 11.1525L8.3775 9H0.75C0.3375 9 0 8.6625 0 8.25V0.75C0 0.3375 0.3375 0 0.75 0C1.1625 0 1.5 0.3375 1.5 0.75V7.5H8.3775L6.2175 5.3475C5.925 5.055 5.925 4.575 6.2175 4.2825C6.51 3.99 6.99 3.99 7.2825 4.2825L10.7175 7.7175C11.01 8.01 11.01 8.49 10.7175 8.7825Z" fill="#181D32" fill-opacity="0.7"/>
</svg>
