<svg width="10" height="10" viewBox="0 0 10 10" fill="none" xmlns="http://www.w3.org/2000/svg">
<path d="M9.72517 0.282546C9.65578 0.213018 9.57336 0.157857 9.48263 0.120221C9.3919 0.0825852 9.29464 0.0632125 9.19642 0.0632125C9.09819 0.0632125 9.00093 0.0825852 8.9102 0.120221C8.81947 0.157857 8.73705 0.213018 8.66767 0.282546L5.00017 3.94255L1.33267 0.275045C1.26323 0.205609 1.1808 0.150529 1.09008 0.11295C0.999352 0.0753716 0.902116 0.0560303 0.803918 0.0560303C0.70572 0.0560303 0.608483 0.0753716 0.51776 0.11295C0.427037 0.150529 0.344604 0.205609 0.275168 0.275045C0.205731 0.344482 0.150651 0.426915 0.113072 0.517638C0.0754937 0.608361 0.0561523 0.705598 0.0561523 0.803796C0.0561523 0.901994 0.0754937 0.99923 0.113072 1.08995C0.150651 1.18068 0.205731 1.26311 0.275168 1.33255L3.94267 5.00005L0.275168 8.66754C0.205731 8.73698 0.150651 8.81941 0.113072 8.91014C0.0754937 9.00086 0.0561523 9.0981 0.0561523 9.19629C0.0561523 9.29449 0.0754937 9.39173 0.113072 9.48245C0.150651 9.57318 0.205731 9.65561 0.275168 9.72504C0.344604 9.79448 0.427037 9.84956 0.51776 9.88714C0.608483 9.92472 0.70572 9.94406 0.803918 9.94406C0.902116 9.94406 0.999352 9.92472 1.09008 9.88714C1.1808 9.84956 1.26323 9.79448 1.33267 9.72504L5.00017 6.05754L8.66767 9.72504C8.7371 9.79448 8.81954 9.84956 8.91026 9.88714C9.00098 9.92472 9.09822 9.94406 9.19642 9.94406C9.29461 9.94406 9.39185 9.92472 9.48257 9.88714C9.5733 9.84956 9.65573 9.79448 9.72517 9.72504C9.7946 9.65561 9.84968 9.57318 9.88726 9.48245C9.92484 9.39173 9.94418 9.29449 9.94418 9.19629C9.94418 9.0981 9.92484 9.00086 9.88726 8.91014C9.84968 8.81941 9.7946 8.73698 9.72517 8.66754L6.05767 5.00005L9.72517 1.33255C10.0102 1.04755 10.0102 0.567546 9.72517 0.282546Z" fill="#181D32" fill-opacity="0.7"/>
</svg>
