<svg width="14" height="14" viewBox="0 0 14 14" fill="none" xmlns="http://www.w3.org/2000/svg">
<path d="M9.625 8.5001H9.0325L8.8225 8.2976C9.29121 7.75308 9.63377 7.11168 9.82566 6.41931C10.0176 5.72694 10.054 5.00072 9.9325 4.2926C9.58 2.2076 7.84 0.542603 5.74 0.287603C5.00171 0.194202 4.25184 0.270932 3.54777 0.51192C2.84369 0.752908 2.20408 1.15177 1.67787 1.67798C1.15166 2.20419 0.752801 2.8438 0.511813 3.54787C0.270825 4.25194 0.194096 5.00181 0.287496 5.7401C0.542496 7.8401 2.2075 9.5801 4.2925 9.9326C5.00061 10.0541 5.72684 10.0177 6.41921 9.82577C7.11158 9.63387 7.75297 9.29132 8.2975 8.8226L8.5 9.0326V9.6251L11.6875 12.8126C11.995 13.1201 12.4975 13.1201 12.805 12.8126C13.1125 12.5051 13.1125 12.0026 12.805 11.6951L9.625 8.5001ZM5.125 8.5001C3.2575 8.5001 1.75 6.9926 1.75 5.1251C1.75 3.2576 3.2575 1.7501 5.125 1.7501C6.9925 1.7501 8.5 3.2576 8.5 5.1251C8.5 6.9926 6.9925 8.5001 5.125 8.5001Z" fill="#181D32" fill-opacity="0.7"/>
</svg>
