<svg width="14" height="16" viewBox="0 0 14 16" fill="none" xmlns="http://www.w3.org/2000/svg">
<path d="M11.5 11.06C10.93 11.06 10.42 11.285 10.03 11.6375L4.6825 8.525C4.72 8.3525 4.75 8.18 4.75 8C4.75 7.82 4.72 7.6475 4.6825 7.475L9.97 4.3925C10.375 4.7675 10.9075 5 11.5 5C12.745 5 13.75 3.995 13.75 2.75C13.75 1.505 12.745 0.5 11.5 0.5C10.255 0.5 9.25 1.505 9.25 2.75C9.25 2.93 9.28 3.1025 9.3175 3.275L4.03 6.3575C3.625 5.9825 3.0925 5.75 2.5 5.75C1.255 5.75 0.25 6.755 0.25 8C0.25 9.245 1.255 10.25 2.5 10.25C3.0925 10.25 3.625 10.0175 4.03 9.6425L9.37 12.7625C9.3325 12.92 9.31 13.085 9.31 13.25C9.31 14.4575 10.2925 15.44 11.5 15.44C12.7075 15.44 13.69 14.4575 13.69 13.25C13.69 12.0425 12.7075 11.06 11.5 11.06ZM11.5 2C11.9125 2 12.25 2.3375 12.25 2.75C12.25 3.1625 11.9125 3.5 11.5 3.5C11.0875 3.5 10.75 3.1625 10.75 2.75C10.75 2.3375 11.0875 2 11.5 2ZM2.5 8.75C2.0875 8.75 1.75 8.4125 1.75 8C1.75 7.5875 2.0875 7.25 2.5 7.25C2.9125 7.25 3.25 7.5875 3.25 8C3.25 8.4125 2.9125 8.75 2.5 8.75ZM11.5 14.015C11.0875 14.015 10.75 13.6775 10.75 13.265C10.75 12.8525 11.0875 12.515 11.5 12.515C11.9125 12.515 12.25 12.8525 12.25 13.265C12.25 13.6775 11.9125 14.015 11.5 14.015Z" fill="#181D32" fill-opacity="0.7"/>
</svg>
