<svg width="14" height="16" viewBox="0 0 14 16" fill="none" xmlns="http://www.w3.org/2000/svg">
<path fill-rule="evenodd" clip-rule="evenodd" d="M8.65015 2L5.35015 2.00001C5.19102 2.00001 5.0384 2.06322 4.92588 2.17575C4.81336 2.28827 4.75015 2.44088 4.75015 2.60001V3.50001H9.25015V2.6C9.25015 2.44087 9.18693 2.28826 9.07441 2.17574C8.96189 2.06321 8.80928 2 8.65015 2ZM10.7501 3.50001V2.6C10.7501 2.04305 10.5289 1.5089 10.1351 1.11508C9.74124 0.721249 9.2071 0.5 8.65014 0.5L5.35014 0.500009C4.79319 0.500009 4.25905 0.721258 3.86522 1.11508C3.4714 1.50891 3.25015 2.04305 3.25015 2.60001V3.50001H1C0.585786 3.50001 0.25 3.8358 0.25 4.25001C0.25 4.66422 0.585786 5.00001 1 5.00001H1.75015V13.4C1.75015 13.957 1.9714 14.4911 2.36522 14.8849C2.75905 15.2788 3.29319 15.5 3.85015 15.5H10.1501C10.7071 15.5 11.2412 15.2788 11.6351 14.8849C12.0289 14.4911 12.2501 13.957 12.2501 13.4V5.00001H13C13.4142 5.00001 13.75 4.66422 13.75 4.25001C13.75 3.8358 13.4142 3.50001 13 3.50001H10.7501ZM10.7501 5.00001H3.25015V13.4C3.25015 13.5591 3.31336 13.7118 3.42588 13.8243C3.5384 13.9368 3.69102 14 3.85015 14H10.1501C10.3093 14 10.4619 13.9368 10.5744 13.8243C10.6869 13.7118 10.7501 13.5591 10.7501 13.4V5.00001ZM5.5 6.5C5.91421 6.5 6.25 6.83579 6.25 7.25V11.75C6.25 12.1642 5.91421 12.5 5.5 12.5C5.08579 12.5 4.75 12.1642 4.75 11.75V7.25C4.75 6.83579 5.08579 6.5 5.5 6.5ZM8.5 6.5C8.91421 6.5 9.25 6.83579 9.25 7.25V11.75C9.25 12.1642 8.91421 12.5 8.5 12.5C8.08579 12.5 7.75 12.1642 7.75 11.75V7.25C7.75 6.83579 8.08579 6.5 8.5 6.5Z" fill="#181D32" fill-opacity="0.7"/>
</svg>
